{
    "streams": [
        {
            "index": 0,
            "codec_name": "h264",
            "codec_long_name": "H.264 / AVC / MPEG-4 AVC / MPEG-4 part 10",
            "profile": "High",
            "codec_type": "video",
            "codec_tag_string": "avc1",
            "codec_tag": "0x31637661",
            "width": 1920,
            "height": 1080,
            "coded_width": 1920,
            "coded_height": 1080,
            "has_b_frames": 2,
            "sample_aspect_ratio": "1:1",
            "display_aspect_ratio": "16:9",
            "pix_fmt": "yuv420p",
            "level": 41,
            "color_range": "tv",
            "color_space": "bt709",
            "color_transfer": "bt709",
            "color_primaries": "bt709",
            "chroma_location": "left",
            "field_order": "progressive",
            "refs": 1,
            "is_avc": "true",
            "nal_length_size": "4",
            "id": "0x1",
            "r_frame_rate": "24000/1001",
            "avg_frame_rate": "24000/1001",
            "time_base": "1/24000",
            "start_pts": 2002,
            "start_time": "0.083417",
            "duration_ts": 211039829,
            "duration": "8793.326208",
            "bit_rate": "1999491",
            "bits_per_raw_sample": "8",
            "nb_frames": "210829",
            "extradata_size": 46,
            "disposition": {
                "default": 1,
                "dub": 0,
                "original": 0,
                "comment": 0,
                "lyrics": 0,
                "karaoke": 0,
                "forced": 0,
                "hearing_impaired": 0,
                "visual_impaired": 0,
                "clean_effects": 0,
                "attached_pic": 0,
                "timed_thumbnails": 0,
                "non_diegetic": 0,
                "captions": 0,
                "descriptions": 0,
                "metadata": 0,
                "dependent": 0,
                "still_image": 0,
                "multilayer": 0
            },
            "tags": {
                "creation_time": "2017-05-29T22:07:39.000000Z",
                "language": "und",
                "handler_name": "video_track.h264",
                "vendor_id": "[0][0][0][0]"
            }
        },
        {
            "index": 1,
            "codec_name": "aac",
            "codec_long_name": "AAC (Advanced Audio Coding)",
            "profile": "LC",
            "codec_type": "audio",
            "codec_tag_string": "mp4a",
            "codec_tag": "0x6134706d",
            "sample_fmt": "fltp",
            "sample_rate": "48000",
            "channels": 2,
            "channel_layout": "stereo",
            "bits_per_sample": 0,
            "initial_padding": 0,
            "id": "0x2",
            "r_frame_rate": "0/0",
            "avg_frame_rate": "0/0",
            "time_base": "1/48000",
            "start_pts": 0,
            "start_time": "0.000000",
            "duration_ts": 422087680,
            "duration": "8793.493333",
            "bit_rate": "162366",
            "nb_frames": "412195",
            "extradata_size": 2,
            "disposition": {
                "default": 1,
                "dub": 0,
                "original": 0,
                "comment": 0,
                "lyrics": 0,
                "karaoke": 0,
                "forced": 0,
                "hearing_impaired": 0,
                "visual_impaired": 0,
                "clean_effects": 0,
                "attached_pic": 0,
                "timed_thumbnails": 0,
                "non_diegetic": 0,
                "captions": 0,
                "descriptions": 0,
                "metadata": 0,
                "dependent": 0,
                "still_image": 0,
                "multilayer": 0
            },
            "tags": {
                "creation_time": "2017-05-29T22:07:57.000000Z",
                "language": "spa",
                "handler_name": "audio_track1.aac",
                "vendor_id": "[0][0][0][0]"
            }
        },
        {
            "index": 2,
            "codec_name": "aac",
            "codec_long_name": "AAC (Advanced Audio Coding)",
            "profile": "LC",
            "codec_type": "audio",
            "codec_tag_string": "mp4a",
            "codec_tag": "0x6134706d",
            "sample_fmt": "fltp",
            "sample_rate": "48000",
            "channels": 2,
            "channel_layout": "stereo",
            "bits_per_sample": 0,
            "initial_padding": 0,
            "id": "0x3",
            "r_frame_rate": "0/0",
            "avg_frame_rate": "0/0",
            "time_base": "1/48000",
            "start_pts": 1440,
            "start_time": "0.030000",
            "duration_ts": 422084608,
            "duration": "8793.429333",
            "bit_rate": "128334",
            "nb_frames": "412192",
            "extradata_size": 2,
            "disposition": {
                "default": 0,
                "dub": 0,
                "original": 0,
                "comment": 0,
                "lyrics": 0,
                "karaoke": 0,
                "forced": 0,
                "hearing_impaired": 0,
                "visual_impaired": 0,
                "clean_effects": 0,
                "attached_pic": 0,
                "timed_thumbnails": 0,
                "non_diegetic": 0,
                "captions": 0,
                "descriptions": 0,
                "metadata": 0,
                "dependent": 0,
                "still_image": 0,
                "multilayer": 0
            },
            "tags": {
                "creation_time": "2017-05-29T22:08:02.000000Z",
                "language": "eng",
                "handler_name": "audio_track2.aac",
                "vendor_id": "[0][0][0][0]"
            }
        },
        {
            "index": 3,
            "codec_name": "mov_text",
            "codec_long_name": "MOV text",
            "codec_type": "subtitle",
            "codec_tag_string": "tx3g",
            "codec_tag": "0x67337874",
            "width": 1920,
            "height": 1080,
            "id": "0x4",
            "r_frame_rate": "0/0",
            "avg_frame_rate": "0/0",
            "time_base": "1/1000",
            "start_pts": 0,
            "start_time": "0.000000",
            "duration_ts": 8793493,
            "duration": "8793.493000",
            "bit_rate": "37",
            "nb_frames": "2408",
            "extradata_size": 48,
            "disposition": {
                "default": 1,
                "dub": 0,
                "original": 0,
                "comment": 0,
                "lyrics": 0,
                "karaoke": 0,
                "forced": 0,
                "hearing_impaired": 0,
                "visual_impaired": 0,
                "clean_effects": 0,
                "attached_pic": 0,
                "timed_thumbnails": 0,
                "non_diegetic": 0,
                "captions": 0,
                "descriptions": 0,
                "metadata": 0,
                "dependent": 0,
                "still_image": 0,
                "multilayer": 0
            },
            "tags": {
                "creation_time": "2017-05-29T22:08:07.000000Z",
                "language": "spa",
                "handler_name": "subtitle.srt"
            }
        },
        {
            "index": 4,
            "codec_name": "mov_text",
            "codec_long_name": "MOV text",
            "codec_type": "subtitle",
            "codec_tag_string": "tx3g",
            "codec_tag": "0x67337874",
            "width": 1920,
            "height": 1080,
            "id": "0x5",
            "r_frame_rate": "0/0",
            "avg_frame_rate": "0/0",
            "time_base": "1/1000",
            "start_pts": 0,
            "start_time": "0.000000",
            "duration_ts": 8793493,
            "duration": "8793.493000",
            "nb_frames": "6",
            "extradata_size": 48,
            "disposition": {
                "default": 0,
                "dub": 0,
                "original": 0,
                "comment": 0,
                "lyrics": 0,
                "karaoke": 0,
                "forced": 0,
                "hearing_impaired": 0,
                "visual_impaired": 0,
                "clean_effects": 0,
                "attached_pic": 0,
                "timed_thumbnails": 0,
                "non_diegetic": 0,
                "captions": 0,
                "descriptions": 0,
                "metadata": 0,
                "dependent": 0,
                "still_image": 0,
                "multilayer": 0
            },
            "tags": {
                "creation_time": "2017-05-29T22:08:07.000000Z",
                "language": "spa",
                "handler_name": "subtitle_forced.srt"
            }
        }
    ],
    "format": {
        "filename": "./sample_dual_audio.mp4",
        "nb_streams": 5,
        "nb_programs": 0,
        "nb_stream_groups": 0,
        "format_name": "mov,mp4,m4a,3gp,3g2,mj2",
        "format_long_name": "QuickTime / MOV",
        "start_time": "0.000000",
        "duration": "8793.493333",
        "size": "2523848932",
        "bit_rate": "2296105",
        "probe_score": 100,
        "tags": {
            "major_brand": "M4V ",
            "minor_version": "1",
            "compatible_brands": "isomavc1M4A M4V mp42",
            "creation_time": "2017-05-29T22:07:39.000000Z",
            "encoder": "My MP4Box GUI 0.6.0.6 <http://my-mp4box-gui.zymichost.com>"
        }
    }
}
